<svg width="52" height="52" viewBox="0 0 52 52" fill="none" xmlns="http://www.w3.org/2000/svg">
<path d="M26 0C40.3594 0 52 11.6406 52 26C52 40.3594 40.3594 52 26 52C11.6406 52 0 40.3594 0 26C0 11.6406 11.6406 0 26 0ZM27.4619 40.2148C27.0625 40.2148 26.7338 40.2969 26.4766 40.4609C26.2249 40.6251 26.0361 40.855 25.9102 41.1504C25.7897 41.4405 25.7295 41.7803 25.7295 42.1689V45.1162C25.7295 45.4939 25.7921 45.8281 25.918 46.1182C26.0493 46.4082 26.2405 46.6356 26.4922 46.7998C26.7495 46.964 27.0733 47.0459 27.4619 47.0459C27.8502 47.0458 28.1702 46.9638 28.4219 46.7998C28.6791 46.6356 28.8712 46.4083 28.9971 46.1182C29.1284 45.8281 29.1943 45.4939 29.1943 45.1162V42.1689C29.1943 41.7803 29.1308 41.4405 29.0049 41.1504C28.8845 40.855 28.6956 40.6251 28.4385 40.4609C28.1868 40.2968 27.8612 40.2149 27.4619 40.2148ZM23.6367 40.2969C23.5656 40.379 23.4724 40.4585 23.3574 40.5352C23.248 40.6117 23.1274 40.6824 22.9961 40.748C22.8702 40.8083 22.7497 40.8638 22.6348 40.9131C22.52 40.9623 22.4242 41 22.3477 41.0273V41.873C22.386 41.8566 22.4519 41.835 22.5449 41.8076C22.6434 41.7803 22.7504 41.7529 22.8652 41.7256C22.98 41.6928 23.0838 41.6598 23.1768 41.627C23.2753 41.5941 23.3412 41.5692 23.374 41.5527V46.9473H24.5068V40.2969H23.6367ZM27.4619 41.1914C27.6368 41.1915 27.7656 41.2437 27.8477 41.3477C27.9297 41.4516 27.981 41.5803 28.0029 41.7334C28.0303 41.8812 28.0439 42.0323 28.0439 42.1855V45.0996C28.0439 45.2419 28.0303 45.3874 28.0029 45.5352C27.9756 45.6829 27.921 45.8091 27.8389 45.9131C27.7568 46.0168 27.6312 46.0683 27.4619 46.0684C27.2977 46.0684 27.1739 46.017 27.0918 45.9131C27.0097 45.8091 26.9528 45.6829 26.9199 45.5352C26.8926 45.3874 26.8789 45.2419 26.8789 45.0996V42.1855C26.8789 42.0323 26.8892 41.8812 26.9111 41.7334C26.9385 41.5803 26.9932 41.4516 27.0752 41.3477C27.1573 41.2437 27.2868 41.1914 27.4619 41.1914ZM26.0273 5.47363C26.0193 5.47402 26.011 5.47578 26.0029 5.47656C25.9922 5.47762 25.9813 5.4797 25.9707 5.48145C25.9583 5.48347 25.9458 5.48529 25.9336 5.48828C25.9141 5.49305 25.8949 5.49964 25.876 5.50684C25.8681 5.50983 25.8603 5.51319 25.8525 5.5166C25.8388 5.52268 25.8239 5.52775 25.8105 5.53516L25.8037 5.53906H25.8066C25.7957 5.54528 25.7849 5.55246 25.7744 5.55957C25.7684 5.56361 25.7617 5.56692 25.7559 5.57129L10.709 16.7676C10.5836 16.8608 10.5099 17.0079 10.5098 17.1641V24.7002C10.51 24.8549 10.5826 25.0004 10.7061 25.0938L25.7529 36.4678C25.9026 36.5809 26.1035 36.5992 26.2715 36.5156C26.3003 36.5013 26.3246 36.4801 26.3496 36.4609L26.3545 36.4678L41.4072 25.0938C41.5306 25.0004 41.6033 24.8549 41.6035 24.7002V17.1641C41.6034 17.0078 41.5297 16.8608 41.4043 16.7676L26.3467 5.57129C26.3408 5.56693 26.3341 5.5636 26.3281 5.55957C26.319 5.55338 26.3093 5.54751 26.2998 5.54199C26.2953 5.53938 26.2907 5.53665 26.2861 5.53418C26.274 5.52762 26.2615 5.52208 26.249 5.5166C26.2411 5.51314 26.2327 5.50987 26.2246 5.50684C26.2059 5.49979 26.1872 5.49297 26.168 5.48828C26.1561 5.48543 26.1438 5.48341 26.1318 5.48145C26.1212 5.4797 26.1103 5.47763 26.0996 5.47656C26.0916 5.47578 26.0832 5.47402 26.0752 5.47363H26.0273ZM39.6338 25.1943L26.5459 35.083V30.2324L37.4639 25.1943H39.6338ZM14.6387 25.1943L25.5566 30.2324V35.0791L12.4795 25.1943H14.6387ZM36.6455 24.4834L26.0508 29.3701L15.4551 24.4805L26.0508 6.92676L36.6455 24.4834ZM14.4668 24.2051H11.498V17.4131L24.3262 7.86719L14.4668 24.2051ZM40.6152 17.4131V24.2051H37.6445L27.7764 7.86621L40.6152 17.4131Z" fill="#606878"/>
</svg>
