<svg width="52" height="52" viewBox="0 0 52 52" fill="none" xmlns="http://www.w3.org/2000/svg">
<path d="M26.001 0C40.3602 0.000263883 52.001 11.6408 52.001 26C52.001 40.3592 40.3602 51.9997 26.001 52C11.6416 52 0 40.3594 0 26C0 11.6406 11.6416 0 26.001 0ZM23.7891 40.2969C23.718 40.3789 23.6255 40.4586 23.5107 40.5352C23.4014 40.6117 23.2806 40.6824 23.1494 40.748C23.0235 40.8083 22.903 40.8638 22.7881 40.9131C22.6734 40.9622 22.5775 41 22.501 41.0273V41.873C22.5393 41.8567 22.6047 41.8348 22.6973 41.8076C22.7957 41.7803 22.9027 41.7529 23.0176 41.7256C23.1325 41.6927 23.237 41.6598 23.3301 41.627C23.4282 41.5942 23.4935 41.5691 23.5264 41.5527V46.9473H24.6602V40.2969H23.7891ZM27.5322 40.2227C27.1163 40.2227 26.7797 40.3079 26.5225 40.4775C26.2652 40.6472 26.0765 40.8826 25.9561 41.1836C25.8411 41.4791 25.7832 41.8238 25.7832 42.2178V42.5137H26.9004V42.2344C26.9004 42.0429 26.9164 41.8677 26.9492 41.709C26.9875 41.5504 27.0559 41.4217 27.1543 41.3232C27.2528 41.2247 27.3903 41.1758 27.5654 41.1758C27.7512 41.1759 27.8881 41.2409 27.9756 41.3721C28.0631 41.5034 28.1064 41.6924 28.1064 41.9385C28.1064 42.1574 28.0712 42.3608 28 42.5469C27.9343 42.7274 27.8467 42.9027 27.7373 43.0723C27.6333 43.2419 27.5207 43.4195 27.4004 43.6055L25.7588 46.1426V46.9473H29.0674V46.0361H27.0479L28.4111 43.9668C28.5588 43.7534 28.6955 43.5452 28.8213 43.3428C28.9471 43.1403 29.0484 42.9298 29.125 42.7109C29.2016 42.4866 29.2402 42.2374 29.2402 41.9639C29.2402 41.4166 29.098 40.9891 28.8135 40.6826C28.5289 40.3761 28.1015 40.2227 27.5322 40.2227ZM25.8848 5.47949L25.8086 5.49707L16.9609 8.37305C16.8872 8.39711 16.8201 8.43797 16.7656 8.49219L16.7148 8.55176L11.2471 16.0781C11.1863 16.162 11.1534 16.2636 11.1533 16.3672V25.6709C11.1535 25.7744 11.1863 25.8752 11.2471 25.959L16.7148 33.4854C16.7759 33.5692 16.8623 33.6329 16.9609 33.665L25.8086 36.541C25.9073 36.573 26.0146 36.573 26.1133 36.541L34.9619 33.665C35.0604 33.6329 35.1461 33.5691 35.207 33.4854L40.6758 25.959C40.7364 25.8752 40.7693 25.7743 40.7695 25.6709V16.3672C40.7695 16.2636 40.7365 16.162 40.6758 16.0781L35.207 8.55176C35.1612 8.48879 35.101 8.4374 35.0322 8.40234L34.9619 8.37305L26.1133 5.49707C26.0394 5.4731 25.9608 5.46758 25.8848 5.47949ZM25.4678 30.8486V35.3916L17.417 32.7764L12.4424 25.9287L16.7646 24.5254L25.4678 30.8486ZM39.4785 25.9287L34.5049 32.7764L26.4531 35.3916V30.8486L35.1562 24.5254L39.4785 25.9287ZM31.2334 13.7627L34.4912 23.792L25.96 29.9902L17.4287 23.792L20.6875 13.7627H31.2334ZM19.7832 13.3574L16.46 23.5889L12.1377 24.9922V16.5273L17.1123 9.67871L19.7832 13.3574ZM39.7842 16.5273V24.9922L35.46 23.5869L32.1367 13.3564L34.8076 9.67871L39.7842 16.5273ZM34.0098 9.09961L31.3398 12.7764H20.582L17.9092 9.09961L25.9609 6.48438L34.0098 9.09961Z" fill="#606878"/>
</svg>
