<svg width="52" height="52" viewBox="0 0 52 52" fill="none" xmlns="http://www.w3.org/2000/svg">
<path d="M26 0C40.3594 0 52 11.6406 52 26C52 40.3594 40.3594 52 26 52C11.6407 51.9999 0 40.3593 0 26C0 11.6407 11.6407 0.000131951 26 0ZM27.0664 40.2148C26.6669 40.2148 26.3383 40.2968 26.0811 40.4609C25.8294 40.6251 25.6405 40.855 25.5146 41.1504C25.3942 41.4405 25.334 41.7803 25.334 42.1689V45.1162C25.334 45.4939 25.3966 45.8281 25.5225 46.1182C25.6538 46.4083 25.8459 46.6356 26.0977 46.7998C26.3549 46.9639 26.6779 47.0459 27.0664 47.0459C27.455 47.0459 27.7756 46.964 28.0273 46.7998C28.2845 46.6356 28.4757 46.4082 28.6016 46.1182C28.7329 45.8281 28.7988 45.4939 28.7988 45.1162V42.1689C28.7988 41.7803 28.7362 41.4405 28.6104 41.1504C28.4899 40.8549 28.3002 40.6251 28.043 40.4609C27.7912 40.2969 27.4658 40.2149 27.0664 40.2148ZM22.9033 40.2227C22.4875 40.2227 22.1508 40.308 21.8936 40.4775C21.6363 40.6472 21.4466 40.8825 21.3262 41.1836C21.2113 41.4791 21.1543 41.8239 21.1543 42.2178V42.5137H22.2705V42.2344C22.2705 42.0429 22.2875 41.8677 22.3203 41.709C22.3586 41.5503 22.4269 41.4217 22.5254 41.3232C22.6239 41.2248 22.7605 41.1758 22.9355 41.1758C23.1216 41.1758 23.2591 41.2408 23.3467 41.3721C23.4342 41.5034 23.4775 41.6924 23.4775 41.9385C23.4775 42.1574 23.4423 42.3608 23.3711 42.5469C23.3054 42.7274 23.2178 42.9027 23.1084 43.0723C23.0044 43.2419 22.8919 43.4194 22.7715 43.6055L21.1299 46.1426V46.9473H24.4385V46.0361H22.4189L23.7812 43.9668C23.929 43.7533 24.0665 43.5453 24.1924 43.3428C24.3182 43.1404 24.4195 42.9297 24.4961 42.7109C24.5727 42.4866 24.6103 42.2374 24.6104 41.9639C24.6104 41.4165 24.4682 40.9891 24.1836 40.6826C23.899 40.3763 23.4723 40.2227 22.9033 40.2227ZM27.0664 41.1914C27.2415 41.1914 27.3701 41.2437 27.4521 41.3477C27.5342 41.4516 27.5865 41.5802 27.6084 41.7334C27.6358 41.8812 27.6494 42.0323 27.6494 42.1855V45.0996C27.6494 45.2419 27.6358 45.3874 27.6084 45.5352C27.581 45.6829 27.5264 45.8091 27.4443 45.9131C27.3622 46.0171 27.236 46.0683 27.0664 46.0684C26.9024 46.0684 26.7794 46.0168 26.6973 45.9131C26.6152 45.8091 26.5573 45.6829 26.5244 45.5352C26.497 45.3874 26.4834 45.2419 26.4834 45.0996V42.1855C26.4834 42.0323 26.4947 41.8812 26.5166 41.7334C26.544 41.5803 26.5986 41.4516 26.6807 41.3477C26.7628 41.2438 26.8914 41.1914 27.0664 41.1914ZM26.0117 5.47363C25.9986 5.47318 25.9849 5.47396 25.9717 5.47461H25.9688C25.9636 5.47489 25.9583 5.47513 25.9531 5.47559C25.9516 5.47572 25.9498 5.47544 25.9482 5.47559C25.9422 5.47618 25.9357 5.47769 25.9297 5.47852H25.9287C25.9226 5.47938 25.9163 5.48034 25.9102 5.48145C25.9079 5.48186 25.9056 5.48197 25.9033 5.48242L25.8779 5.48828C25.8756 5.48886 25.8734 5.48962 25.8711 5.49023C25.8657 5.49168 25.8598 5.49349 25.8545 5.49512C25.8529 5.4956 25.8512 5.49559 25.8496 5.49609L25.8486 5.49707C25.8445 5.49839 25.84 5.49954 25.8359 5.50098C25.8336 5.5018 25.8304 5.50306 25.8281 5.50391C25.8239 5.50549 25.8196 5.50708 25.8154 5.50879C25.8136 5.50953 25.8114 5.51095 25.8096 5.51172C25.8038 5.51416 25.7977 5.51588 25.792 5.51855L25.79 5.52051C25.7875 5.5217 25.7847 5.5222 25.7822 5.52344L11.2227 12.4053C11.2151 12.4088 11.2075 12.4131 11.2002 12.417C11.1985 12.4179 11.1961 12.419 11.1943 12.4199C11.1868 12.4241 11.1791 12.4281 11.1719 12.4326C11.1708 12.4333 11.1701 12.4348 11.1689 12.4355C11.1439 12.4516 11.12 12.4692 11.0986 12.4893L11.0742 12.5137C11.0685 12.5199 11.063 12.5267 11.0576 12.5332C11.0566 12.5344 11.0557 12.5359 11.0547 12.5371C11.0434 12.551 11.033 12.566 11.0234 12.5811C11.0224 12.5826 11.0205 12.5843 11.0195 12.5859C11.0152 12.5929 11.0117 12.6003 11.0078 12.6074C11.0069 12.6091 11.0058 12.6106 11.0049 12.6123C10.9964 12.6281 10.9881 12.6444 10.9814 12.6611C10.981 12.6623 10.9809 12.6638 10.9805 12.665C10.9774 12.6728 10.9743 12.6805 10.9717 12.6885C10.971 12.6905 10.9704 12.6933 10.9697 12.6953C10.9677 12.7017 10.9656 12.7084 10.9639 12.7148L10.9619 12.7217C10.9615 12.7233 10.9613 12.7249 10.9609 12.7266C10.9569 12.7431 10.9534 12.7603 10.9512 12.7773C10.951 12.7789 10.9514 12.7807 10.9512 12.7822C10.9502 12.7899 10.9498 12.7979 10.9492 12.8057C10.949 12.8086 10.9484 12.8115 10.9482 12.8145C10.9478 12.8221 10.9473 12.8302 10.9473 12.8379V12.8535C10.9474 12.8584 10.948 12.8633 10.9482 12.8682C10.9483 12.8696 10.9481 12.8716 10.9482 12.873L11.9863 28.126C11.9864 28.1272 11.9862 28.1287 11.9863 28.1299C11.9867 28.1345 11.9878 28.139 11.9883 28.1436C11.9886 28.1468 11.9889 28.1501 11.9893 28.1533C11.9897 28.1567 11.9897 28.1607 11.9902 28.1641C11.9909 28.1682 11.9915 28.1726 11.9922 28.1768C11.9927 28.1794 11.9936 28.1819 11.9941 28.1846C11.9949 28.1887 11.9962 28.1932 11.9971 28.1973C11.9977 28.2002 11.9983 28.2031 11.999 28.2061L12.0039 28.2256C12.0072 28.237 12.0106 28.2487 12.0146 28.2598L12.0234 28.2803C12.0242 28.2822 12.0246 28.2843 12.0254 28.2861C12.0329 28.3033 12.0414 28.3199 12.0508 28.3359C12.0522 28.3383 12.0543 28.3404 12.0557 28.3428C12.0568 28.3446 12.0574 28.3468 12.0586 28.3486C12.0595 28.3501 12.0606 28.3521 12.0615 28.3535C12.0637 28.3568 12.0662 28.36 12.0684 28.3633C12.0693 28.3646 12.0704 28.3659 12.0713 28.3672C12.0726 28.3691 12.0738 28.3711 12.0752 28.373C12.0787 28.3779 12.0823 28.383 12.0859 28.3877C12.0867 28.3886 12.0881 28.3897 12.0889 28.3906C12.1047 28.4108 12.1224 28.4297 12.1416 28.4473C12.1446 28.45 12.1473 28.4534 12.1504 28.4561C12.1519 28.4574 12.1538 28.4587 12.1553 28.46C12.1594 28.4635 12.1637 28.4673 12.168 28.4707C12.1689 28.4714 12.17 28.472 12.1709 28.4727C12.172 28.4735 12.1737 28.4747 12.1748 28.4756C12.1782 28.4782 12.1821 28.4809 12.1855 28.4834C12.1867 28.4842 12.1883 28.4855 12.1895 28.4863C12.191 28.4874 12.1928 28.4882 12.1943 28.4893C12.1966 28.4908 12.1989 28.4926 12.2012 28.4941C12.2037 28.4958 12.2064 28.4974 12.209 28.499C12.2134 28.5018 12.2181 28.5052 12.2227 28.5078C12.2236 28.5084 12.2246 28.5092 12.2256 28.5098C12.2313 28.513 12.2374 28.5155 12.2432 28.5186L12.2441 28.5195L12.2471 28.5215C12.2481 28.522 12.2499 28.5219 12.251 28.5225L25.7754 35.5254C25.7792 35.5274 25.7833 35.5294 25.7871 35.5312C25.792 35.5336 25.7977 35.5359 25.8027 35.5381C25.807 35.54 25.8111 35.5422 25.8154 35.5439C25.8206 35.546 25.8259 35.5479 25.8311 35.5498C25.8343 35.551 25.8376 35.5526 25.8408 35.5537C25.8474 35.556 25.8546 35.5576 25.8613 35.5596C25.8639 35.5603 25.8666 35.5608 25.8691 35.5615C25.876 35.5634 25.8827 35.5658 25.8896 35.5674C25.894 35.5684 25.8989 35.5695 25.9033 35.5703C25.9087 35.5714 25.9145 35.5724 25.9199 35.5732C25.9245 35.574 25.929 35.5746 25.9336 35.5752C25.9389 35.5759 25.9448 35.5766 25.9502 35.5771C25.9541 35.5775 25.958 35.5779 25.9619 35.5781C25.968 35.5785 25.9744 35.5789 25.9805 35.5791H26.0098C26.0159 35.5789 26.0222 35.5786 26.0283 35.5781C26.0321 35.5779 26.0362 35.5775 26.04 35.5771C26.0454 35.5766 26.0513 35.5759 26.0566 35.5752C26.0614 35.5746 26.0665 35.574 26.0713 35.5732C26.0765 35.5724 26.0817 35.5713 26.0869 35.5703C26.0914 35.5694 26.0961 35.5684 26.1006 35.5674C26.1068 35.566 26.113 35.5642 26.1191 35.5625C26.1225 35.5616 26.1265 35.5606 26.1299 35.5596L26.1592 35.5498C26.1644 35.5479 26.1697 35.546 26.1748 35.5439C26.1794 35.5421 26.1839 35.5401 26.1885 35.5381C26.1934 35.5359 26.1983 35.5336 26.2031 35.5312C26.2069 35.5294 26.2111 35.5273 26.2148 35.5254H26.2158L26.2178 35.5244L39.7393 28.5225C39.7532 28.5155 39.7671 28.5082 39.7803 28.5C39.7811 28.4995 39.7823 28.4986 39.7832 28.498C39.7848 28.4971 39.7865 28.4961 39.7881 28.4951C39.7908 28.4933 39.7932 28.4911 39.7959 28.4893C39.7977 28.488 39.8 28.4876 39.8018 28.4863C39.803 28.4854 39.8044 28.4843 39.8057 28.4834C39.8089 28.4811 39.8122 28.478 39.8154 28.4756C39.8167 28.4746 39.818 28.4737 39.8193 28.4727C39.8209 28.4714 39.8227 28.47 39.8242 28.4688C39.8267 28.4668 39.8296 28.4649 39.832 28.4629C39.8336 28.4616 39.8354 28.4603 39.8369 28.459L39.8467 28.4492C39.8667 28.4311 39.8859 28.4115 39.9023 28.3906C39.9033 28.3894 39.9043 28.3879 39.9053 28.3867C39.9087 28.3823 39.9118 28.3775 39.915 28.373L39.9268 28.3555C39.9285 28.3529 39.931 28.3503 39.9326 28.3477C39.9529 28.3152 39.9693 28.2802 39.9814 28.2432C39.9818 28.2419 39.982 28.2405 39.9824 28.2393C39.9838 28.2348 39.985 28.2301 39.9863 28.2256C39.9867 28.2242 39.9879 28.2221 39.9883 28.2207C39.9897 28.2154 39.9909 28.2095 39.9922 28.2041C39.9927 28.2018 39.9936 28.1996 39.9941 28.1973C39.9944 28.1961 39.9939 28.1945 39.9941 28.1934C39.9948 28.1905 39.9955 28.1875 39.9961 28.1846C39.9966 28.1819 39.9976 28.1794 39.998 28.1768C39.9984 28.1746 39.9987 28.1721 39.999 28.1699C39.9992 28.1686 39.9998 28.1673 40 28.166C40.0025 28.15 40.004 28.1334 40.0049 28.1172L41.0352 12.9678C41.0452 12.9311 41.0516 12.8926 41.0527 12.8535C41.0581 12.6628 40.9503 12.4867 40.7783 12.4053L26.209 5.52441C26.1928 5.51632 26.176 5.50908 26.1592 5.50293L26.1572 5.50195L26.1367 5.49512C26.1306 5.49324 26.1243 5.49187 26.1182 5.49023L26.1152 5.48926C26.1101 5.48792 26.1038 5.48651 26.0986 5.48535C26.096 5.48477 26.0934 5.48394 26.0908 5.4834C26.0864 5.4825 26.0816 5.48124 26.0771 5.48047C26.0749 5.48008 26.0726 5.47985 26.0703 5.47949C26.0661 5.47882 26.0619 5.4781 26.0576 5.47754C26.0545 5.47713 26.051 5.47691 26.0479 5.47656C26.0443 5.47617 26.0406 5.4759 26.0371 5.47559C26.0342 5.47533 26.0313 5.47481 26.0283 5.47461C26.0234 5.47427 26.0186 5.47383 26.0137 5.47363H26.0117ZM25.5166 31.9482V34.3105L16.4453 29.6133L25.5166 31.9482ZM26.4746 34.3105V31.9482L35.5449 29.6133L26.4746 34.3105ZM25.0117 30.8262L13.0645 27.751L16.5186 16.0518L25.0117 30.8262ZM38.9258 27.751L26.9785 30.8262L35.4727 16.0518L38.9258 27.751ZM34.7852 15.3223L25.9951 30.6143L17.2051 15.3223H34.7852ZM15.793 15.124L12.7607 25.3955L11.9561 13.5723L15.793 15.124ZM39.2295 25.3955L36.1982 15.127L40.0342 13.5762L39.2295 25.3955ZM34.3877 14.3613H17.6025L25.9951 6.60742L34.3877 14.3613ZM16.2744 14.2822L12.6221 12.8057L23.3711 7.72559L16.2744 14.2822ZM39.373 12.8037L35.7227 14.2793L28.6221 7.72559L39.373 12.8037Z" fill="#606878"/>
</svg>
