<svg width="52" height="52" viewBox="0 0 52 52" fill="none" xmlns="http://www.w3.org/2000/svg">
<path d="M26 0C40.3594 0 52 11.6406 52 26C52 40.3594 40.3594 52 26 52C11.6406 52 0 40.3594 0 26C0 11.6406 11.6406 0 26 0ZM25.6895 40.2969L23.957 44.3447V45.3135H25.9443V46.9473H27.0117V45.3135H27.6934V44.4102H27.0117V40.2969H25.6895ZM25.9443 44.4102H24.9092L25.9443 41.5205V44.4102ZM25.3145 6.84375C25.2993 6.84481 25.2837 6.84614 25.2686 6.84863C25.2543 6.851 25.2405 6.85482 25.2266 6.8584C25.2228 6.85937 25.2176 6.85929 25.2139 6.86035C25.2067 6.86239 25.1994 6.86485 25.1924 6.86719C25.1803 6.87122 25.168 6.87591 25.1562 6.88086C25.1405 6.88754 25.1252 6.89514 25.1104 6.90332C25.1035 6.90708 25.0965 6.91193 25.0898 6.91602C25.0755 6.9249 25.0621 6.93508 25.0488 6.94531C25.0441 6.94898 25.0388 6.95222 25.0342 6.95605L25.0068 6.97949C25.0019 6.98427 24.9969 6.98917 24.9922 6.99414C24.9824 7.00435 24.9728 7.01523 24.9639 7.02637C24.9565 7.0355 24.9491 7.04506 24.9424 7.05469C24.9374 7.06193 24.9324 7.06958 24.9277 7.07715L10.9512 29.877C10.8697 30.0106 10.8563 30.1752 10.915 30.3203C10.974 30.4658 11.099 30.5752 11.251 30.6143L25.2266 34.2012C25.2299 34.2019 25.234 34.2014 25.2373 34.2021C25.2573 34.2068 25.2775 34.2088 25.2979 34.2109C25.3147 34.2127 25.3318 34.2148 25.3486 34.2148C25.3655 34.2149 25.3826 34.2127 25.3994 34.2109C25.42 34.2088 25.4408 34.2068 25.4609 34.2021C25.4643 34.2014 25.4683 34.2019 25.4717 34.2012L39.4473 30.6143C39.5992 30.5753 39.7242 30.4657 39.7832 30.3203C39.842 30.1751 39.8286 30.0106 39.7471 29.877L25.7705 7.0791C25.7691 7.07674 25.7662 7.07456 25.7646 7.07227C25.7531 7.05414 25.7413 7.036 25.7275 7.01953C25.7229 7.01404 25.7177 7.00916 25.7129 7.00391C25.6991 6.98883 25.6846 6.97424 25.6689 6.96094C25.6655 6.95799 25.6617 6.95501 25.6582 6.95215C25.6433 6.94019 25.6277 6.92819 25.6113 6.91797C25.6022 6.91225 25.5925 6.90744 25.583 6.90234C25.5678 6.89418 25.5523 6.88649 25.5361 6.87988C25.5304 6.87753 25.5244 6.87518 25.5186 6.87305C25.5073 6.86893 25.4961 6.86368 25.4844 6.86035C25.4761 6.85802 25.4673 6.85733 25.459 6.85547C25.4542 6.85438 25.4491 6.85347 25.4443 6.85254C25.401 6.84409 25.3573 6.84069 25.3145 6.84375ZM24.8545 33.084L12.1455 29.8223L24.8545 9.09082V33.084ZM38.5527 29.8223L25.8438 33.084V9.09082L38.5527 29.8223Z" fill="#606878"/>
</svg>
