<svg width="52" height="52" viewBox="0 0 52 52" fill="none" xmlns="http://www.w3.org/2000/svg">
<path d="M26 0C40.3592 0.000197913 52 11.6407 52 26C52 40.3593 40.3592 51.9998 26 52C11.6406 52 0 40.3594 0 26C0 11.6406 11.6406 0 26 0ZM25.8057 40.2227C25.3517 40.2227 24.9988 40.3241 24.7471 40.5264C24.4953 40.7289 24.3202 41.0061 24.2217 41.3564C24.1232 41.7011 24.0733 42.0894 24.0732 42.5215V44.8535C24.0732 45.264 24.1311 45.6368 24.2461 45.9707C24.3665 46.2989 24.5554 46.5585 24.8125 46.75C25.0698 46.9416 25.4039 47.0381 25.8145 47.0381C26.2467 47.038 26.5891 46.9392 26.8408 46.7422C27.0925 46.5451 27.2734 46.2768 27.3828 45.9375C27.4923 45.5927 27.5469 45.2039 27.5469 44.7715C27.5469 44.3994 27.5002 44.0683 27.4072 43.7783C27.3197 43.4883 27.1718 43.2609 26.9639 43.0967C26.7559 42.9325 26.4706 42.8529 26.1094 42.8584C25.9015 42.8584 25.7182 42.897 25.5596 42.9736C25.4063 43.0448 25.2915 43.1437 25.2148 43.2695V42.4727C25.2148 42.1388 25.2341 41.8728 25.2725 41.6758C25.3163 41.4735 25.3822 41.3287 25.4697 41.2412C25.5573 41.1537 25.6722 41.1094 25.8145 41.1094C26.0494 41.1094 26.2022 41.1836 26.2734 41.3311C26.3446 41.4788 26.3808 41.7007 26.3809 41.9961H27.4727C27.4726 41.9799 27.4702 41.9635 27.4648 41.9473V41.8896C27.4648 41.5285 27.4069 41.2248 27.292 40.9785C27.177 40.7322 26.9963 40.5458 26.75 40.4199C26.5092 40.2886 26.1942 40.2227 25.8057 40.2227ZM25.8145 43.7207C26.0057 43.7208 26.1425 43.7779 26.2246 43.8926C26.3067 44.0021 26.3556 44.1531 26.3721 44.3447C26.394 44.5308 26.4053 44.7445 26.4053 44.9854C26.4053 45.2204 26.3892 45.4256 26.3564 45.6006C26.3236 45.7757 26.2657 45.9132 26.1836 46.0117C26.1015 46.1101 25.9809 46.1592 25.8223 46.1592C25.6691 46.1592 25.5462 46.1125 25.4531 46.0195C25.3656 45.921 25.302 45.7925 25.2637 45.6338C25.2308 45.4751 25.2148 45.3023 25.2148 45.1162V44.0732C25.2476 44.0186 25.2911 43.9638 25.3457 43.9092C25.4059 43.8544 25.4751 43.8112 25.5518 43.7783C25.6338 43.7401 25.7215 43.7207 25.8145 43.7207ZM26.2158 8.25293C26.088 8.19622 25.9422 8.19622 25.8145 8.25293L13.499 13.7266C13.3204 13.806 13.2051 13.9832 13.2051 14.1787V29.2314C13.2053 29.4267 13.3206 29.6033 13.499 29.6826L25.8145 35.1562C25.9422 35.2129 26.0881 35.2129 26.2158 35.1562L38.5312 29.6826C38.7097 29.6033 38.8249 29.4267 38.8252 29.2314V14.1787C38.8252 13.9832 38.7099 13.806 38.5312 13.7266L26.2158 8.25293ZM25.5205 19.9727V33.9434L14.1934 28.9092V14.9385L25.5205 19.9727ZM37.8369 28.9092L26.5098 33.9434V19.9727L37.8369 14.9385V28.9092ZM37.1133 14.1787L26.0146 19.1123L14.915 14.1787L26.0146 9.24609L37.1133 14.1787Z" fill="#606878"/>
</svg>
