<svg width="52" height="52" viewBox="0 0 52 52" fill="none" xmlns="http://www.w3.org/2000/svg">
<path d="M26 0C40.3594 0 52 11.6406 52 26C52 40.3594 40.3594 52 26 52C11.6407 51.9999 0 40.3593 0 26C0 11.6407 11.6407 0.000131951 26 0ZM25.7646 40.2227C25.3979 40.2227 25.091 40.2942 24.8447 40.4365C24.5985 40.5733 24.4153 40.7758 24.2949 41.0439C24.18 41.3067 24.1221 41.6192 24.1221 41.9805C24.1276 42.347 24.1958 42.6509 24.3271 42.8916C24.4639 43.1268 24.6312 43.3124 24.8281 43.4492C24.7023 43.5148 24.5906 43.6002 24.4922 43.7041C24.3937 43.8026 24.3084 43.9175 24.2373 44.0488C24.1716 44.1801 24.1194 44.328 24.0811 44.4922C24.0482 44.6508 24.0322 44.8261 24.0322 45.0176C24.0322 45.4172 24.0868 45.7706 24.1963 46.0771C24.3058 46.3781 24.4889 46.6135 24.7461 46.7832C25.0034 46.9529 25.3432 47.0381 25.7646 47.0381C26.1914 47.0381 26.5305 46.9528 26.7822 46.7832C27.0395 46.6135 27.2235 46.3782 27.333 46.0771C27.4479 45.7706 27.5025 45.4171 27.4971 45.0176C27.497 44.8261 27.4777 44.6508 27.4395 44.4922C27.4066 44.3281 27.3543 44.1801 27.2832 44.0488C27.2175 43.9176 27.1356 43.8026 27.0371 43.7041C26.9386 43.6001 26.8261 43.5149 26.7002 43.4492C26.8971 43.3124 27.0587 43.1268 27.1846 42.8916C27.3159 42.6563 27.3841 42.3525 27.3896 41.9805C27.3951 41.6192 27.3382 41.3067 27.2178 41.0439C27.1028 40.7812 26.9244 40.5788 26.6836 40.4365C26.4428 40.2943 26.1366 40.2227 25.7646 40.2227ZM25.7646 43.959C25.9396 43.959 26.0707 44.0137 26.1582 44.123C26.2513 44.2325 26.3148 44.3747 26.3477 44.5498C26.3805 44.7195 26.3941 44.8979 26.3887 45.084C26.3887 45.2589 26.375 45.4311 26.3477 45.6006C26.3203 45.7648 26.26 45.9022 26.167 46.0117C26.0795 46.1211 25.9451 46.1757 25.7646 46.1758C25.5895 46.1758 25.4554 46.1235 25.3623 46.0195C25.2693 45.9101 25.2057 45.7703 25.1729 45.6006C25.1455 45.4311 25.1319 45.2589 25.1318 45.084C25.1318 44.8925 25.1488 44.7116 25.1816 44.542C25.2199 44.3724 25.2826 44.2325 25.3701 44.123C25.4632 44.0136 25.595 43.959 25.7646 43.959ZM25.7646 41.085C25.9616 41.085 26.1015 41.1646 26.1836 41.3232C26.2656 41.4818 26.3066 41.687 26.3066 41.9385C26.3066 42.1409 26.2896 42.3218 26.2568 42.4805C26.224 42.6391 26.167 42.7654 26.085 42.8584C26.0084 42.9459 25.9014 42.9925 25.7646 42.998C25.6278 42.9926 25.5177 42.946 25.4355 42.8584C25.3536 42.7654 25.2932 42.639 25.2549 42.4805C25.2221 42.3164 25.2061 42.133 25.2061 41.9307C25.2061 41.6844 25.2503 41.482 25.3379 41.3232C25.4309 41.1646 25.5731 41.085 25.7646 41.085ZM25.998 6.8418C25.9915 6.84204 25.985 6.84326 25.9785 6.84375C25.9691 6.84454 25.9596 6.84632 25.9502 6.84766C25.9381 6.84927 25.926 6.85199 25.9141 6.85449C25.8841 6.86106 25.854 6.86951 25.8252 6.88184C25.8224 6.88302 25.8191 6.88451 25.8164 6.88574C25.7651 6.90836 25.716 6.93848 25.6738 6.97852L11.9893 19.9785C11.9863 19.9814 11.9834 19.9844 11.9805 19.9873C11.9512 20.0168 11.924 20.0507 11.9023 20.0879C11.8833 20.1207 11.8692 20.1554 11.8584 20.1904C11.857 20.1948 11.8557 20.1997 11.8545 20.2041C11.8461 20.2344 11.8423 20.2659 11.8398 20.2969C11.8386 20.3122 11.8367 20.3274 11.8369 20.3428C11.8373 20.3719 11.8412 20.4011 11.8467 20.4297C11.848 20.4366 11.848 20.4442 11.8496 20.4512C11.8511 20.4574 11.8537 20.4636 11.8555 20.4697C11.8645 20.5017 11.8762 20.5336 11.8916 20.5635C11.8965 20.5729 11.9037 20.5817 11.9092 20.5908C11.9255 20.6179 11.944 20.644 11.9658 20.668C11.9689 20.6714 11.9714 20.6754 11.9746 20.6787C11.9795 20.6838 11.9841 20.6894 11.9893 20.6943L25.6738 33.6943C25.714 33.7325 25.761 33.7609 25.8096 33.7832C25.8146 33.7856 25.8201 33.7888 25.8252 33.791C25.8546 33.8036 25.8855 33.8127 25.916 33.8193C25.9273 33.8217 25.9387 33.8227 25.9502 33.8242C25.9573 33.8252 25.9645 33.8264 25.9717 33.8271C26.0129 33.8308 26.0544 33.8301 26.0957 33.8232C26.1025 33.8222 26.1095 33.8207 26.1162 33.8193C26.1478 33.8127 26.1795 33.804 26.21 33.791C26.2148 33.7889 26.2198 33.7854 26.2246 33.7832C26.2735 33.7609 26.32 33.7326 26.3604 33.6943L40.0449 20.6943C40.0488 20.6905 40.0519 20.6855 40.0557 20.6816C40.0611 20.676 40.0661 20.6699 40.0713 20.6641C40.0947 20.6378 40.1149 20.6098 40.1318 20.5801C40.1339 20.5764 40.1367 20.573 40.1387 20.5693C40.1567 20.5357 40.1699 20.5003 40.1797 20.4639C40.1808 20.4597 40.1845 20.4554 40.1855 20.4512C40.1871 20.4443 40.1862 20.4366 40.1875 20.4297C40.2019 20.3553 40.2003 20.2784 40.1797 20.2041C40.1779 20.1978 40.1749 20.1918 40.1729 20.1855C40.1622 20.1523 40.1499 20.1191 40.1318 20.0879C40.1093 20.0491 40.0806 20.0157 40.0498 19.9854C40.0479 19.9834 40.0469 19.9804 40.0449 19.9785L26.3604 6.97852C26.3199 6.94014 26.2736 6.91103 26.2246 6.88867C26.2199 6.88649 26.2147 6.88389 26.21 6.88184C26.1795 6.86877 26.1479 6.85915 26.1162 6.85254C26.1056 6.85042 26.0948 6.84907 26.084 6.84766C26.0746 6.84634 26.0651 6.84452 26.0557 6.84375C26.0495 6.84329 26.0433 6.84201 26.0371 6.8418H25.998ZM26.5156 32.1836L26.5107 24.8096L37.8604 21.4053L26.5156 32.1836ZM25.5137 24.8096L25.5176 32.1816L14.1748 21.4072L25.5137 24.8096ZM25.5137 23.7754L13.2881 20.1064L25.5176 8.49023L25.5137 23.7754ZM38.7441 20.1064L26.5107 23.7754L26.5156 8.49023L38.7441 20.1064Z" fill="#606878"/>
</svg>
