<svg width="512" height="512" viewBox="0 0 512 512" fill="none" xmlns="http://www.w3.org/2000/svg">
<g clip-path="url(#clip0_3_2)">
<rect width="512" height="512" fill="white"/>
<circle cx="255.5" cy="255.5" r="256.5" fill="black"/>
<path fill-rule="evenodd" clip-rule="evenodd" d="M255.699 68.0034C255.708 68.0037 255.717 68.004 255.727 68.0043C255.789 68.0067 255.851 68.0108 255.913 68.0151C255.951 68.0177 255.988 68.0196 256.025 68.0229C256.07 68.0269 256.115 68.0325 256.16 68.0375C256.199 68.0419 256.238 68.0461 256.277 68.0512C256.332 68.0583 256.386 68.0661 256.439 68.0747C256.469 68.0794 256.499 68.0841 256.529 68.0893C256.585 68.099 256.641 68.1103 256.696 68.1215C256.73 68.1284 256.763 68.1346 256.797 68.142C256.801 68.1429 256.805 68.1431 256.809 68.144C256.874 68.1586 256.939 68.1751 257.004 68.1918C257.016 68.195 257.028 68.1984 257.04 68.2016C257.117 68.222 257.193 68.2445 257.27 68.268C257.281 68.2715 257.292 68.2742 257.304 68.2778C257.378 68.301 257.451 68.3258 257.524 68.352C257.536 68.356 257.547 68.3606 257.558 68.3647C257.769 68.4418 257.977 68.5297 258.181 68.6313L440.677 154.573C442.835 155.589 444.186 157.787 444.118 160.171C444.104 160.66 444.03 161.136 443.904 161.594L430.992 350.808C430.982 351.011 430.96 351.213 430.929 351.413C430.926 351.429 430.924 351.446 430.921 351.462C430.916 351.49 430.911 351.517 430.906 351.544C430.9 351.579 430.894 351.614 430.887 351.649C430.88 351.685 430.873 351.722 430.865 351.758C430.862 351.773 430.859 351.787 430.855 351.801C430.849 351.833 430.841 351.864 430.834 351.895C430.818 351.963 430.8 352.031 430.781 352.099C430.776 352.117 430.771 352.135 430.766 352.153C430.749 352.211 430.732 352.268 430.714 352.326C430.709 352.342 430.703 352.358 430.697 352.374C430.545 352.838 430.339 353.277 430.084 353.683C430.063 353.716 430.042 353.748 430.021 353.781C429.989 353.83 429.956 353.878 429.923 353.926C429.905 353.952 429.886 353.977 429.868 354.002C429.827 354.06 429.785 354.116 429.742 354.172C429.729 354.189 429.717 354.206 429.704 354.223C429.498 354.484 429.268 354.728 429.017 354.955C428.991 354.977 428.966 355 428.94 355.023C428.922 355.039 428.903 355.055 428.885 355.071C428.865 355.087 428.845 355.103 428.825 355.12C428.795 355.145 428.765 355.171 428.733 355.196C428.714 355.211 428.693 355.226 428.673 355.242C428.654 355.256 428.635 355.27 428.616 355.285C428.576 355.315 428.535 355.346 428.494 355.375C428.479 355.387 428.463 355.398 428.447 355.409C428.425 355.424 428.403 355.44 428.38 355.456C428.346 355.479 428.311 355.502 428.276 355.525C428.256 355.538 428.235 355.55 428.215 355.563C428.204 355.57 428.193 355.577 428.183 355.583C428.017 355.687 427.848 355.784 427.672 355.872L258.289 443.311C258.282 443.315 258.274 443.319 258.267 443.323L258.251 443.331C258.204 443.356 258.155 443.377 258.107 443.4C258.045 443.43 257.983 443.461 257.92 443.489C257.863 443.514 257.804 443.536 257.746 443.559C257.68 443.586 257.615 443.614 257.548 443.638C257.513 443.651 257.477 443.662 257.441 443.674C257.356 443.704 257.27 443.732 257.184 443.757C257.141 443.77 257.098 443.78 257.056 443.791C256.976 443.813 256.897 443.834 256.816 443.852C256.76 443.865 256.704 443.874 256.647 443.885C256.58 443.898 256.514 443.913 256.446 443.923C256.386 443.933 256.326 443.94 256.266 443.948C256.199 443.956 256.132 443.966 256.064 443.972C256.015 443.977 255.965 443.978 255.916 443.982C255.838 443.987 255.76 443.994 255.682 443.997C255.621 443.998 255.56 443.997 255.499 443.997C255.438 443.997 255.377 443.998 255.315 443.997C255.239 443.994 255.162 443.988 255.085 443.983C255.034 443.979 254.983 443.977 254.933 443.972C254.865 443.966 254.798 443.956 254.731 443.948C254.671 443.94 254.611 443.933 254.551 443.923C254.482 443.912 254.415 443.898 254.347 443.884C254.292 443.873 254.236 443.864 254.182 443.852C254.093 443.832 254.005 443.809 253.917 443.785C253.884 443.776 253.851 443.769 253.818 443.759C253.735 443.735 253.652 443.706 253.569 443.678C253.528 443.664 253.486 443.651 253.444 443.636C253.378 443.612 253.313 443.585 253.248 443.558C253.193 443.536 253.138 443.515 253.083 443.491C253.02 443.463 252.959 443.433 252.897 443.403C252.848 443.379 252.796 443.357 252.747 443.331L83.3252 355.872C83.3118 355.865 83.2985 355.858 83.2852 355.851L83.2471 355.831C83.2411 355.828 83.2355 355.825 83.2295 355.822C83.156 355.783 83.0834 355.744 83.0117 355.703C82.9979 355.695 82.9844 355.686 82.9707 355.678C82.9142 355.645 82.8581 355.611 82.8028 355.577C82.7702 355.556 82.7381 355.535 82.7061 355.514C82.6766 355.495 82.6473 355.475 82.6182 355.456C82.5962 355.44 82.5746 355.425 82.5528 355.41C82.5365 355.398 82.5201 355.387 82.5039 355.375C82.4585 355.343 82.4136 355.31 82.3692 355.276C82.3545 355.265 82.3397 355.254 82.3252 355.243C82.3129 355.233 82.3003 355.224 82.2881 355.214C82.2336 355.171 82.1799 355.127 82.127 355.082C82.107 355.066 82.0871 355.049 82.0674 355.032C82.0289 354.998 81.9917 354.963 81.9541 354.929C81.714 354.71 81.4927 354.475 81.294 354.223C81.2846 354.211 81.2759 354.199 81.2666 354.187C81.2193 354.126 81.1728 354.065 81.1279 354.002C81.1099 353.977 81.0929 353.952 81.0752 353.926C81.0636 353.91 81.0515 353.893 81.0401 353.876C81.0117 353.835 80.9843 353.793 80.957 353.75C80.9456 353.733 80.9342 353.715 80.9229 353.697C80.9078 353.673 80.8917 353.65 80.877 353.625C80.8591 353.596 80.8425 353.566 80.8252 353.537C80.7072 353.336 80.6003 353.127 80.5059 352.913C80.4948 352.887 80.4844 352.862 80.4736 352.836C80.4498 352.78 80.4264 352.724 80.4043 352.666C80.3934 352.638 80.3826 352.61 80.3721 352.581C80.3209 352.443 80.2745 352.303 80.2334 352.16C80.2243 352.128 80.2156 352.097 80.207 352.065C80.194 352.017 80.1818 351.968 80.1699 351.919C80.1604 351.88 80.1514 351.841 80.1426 351.801C80.1314 351.751 80.1203 351.7 80.1104 351.649C80.1036 351.614 80.097 351.579 80.0908 351.544C80.0817 351.493 80.0732 351.44 80.0654 351.388C80.0591 351.346 80.0533 351.304 80.0479 351.261C80.0425 351.219 80.0377 351.177 80.0332 351.135C80.027 351.077 80.0212 351.018 80.0166 350.959C80.0153 350.942 80.0139 350.926 80.0127 350.909L67.0127 160.409C67.0115 160.39 67.0109 160.371 67.0098 160.353C67.0062 160.293 67.0037 160.232 67.002 160.171C67.0011 160.142 67.0014 160.113 67.001 160.083C67.0005 160.048 66.9999 160.013 67 159.978C67.0004 159.881 67.0028 159.784 67.0078 159.688C67.0099 159.648 67.0128 159.608 67.0156 159.569C67.0227 159.471 67.0313 159.374 67.043 159.277C67.0454 159.257 67.0491 159.236 67.0518 159.216C67.0798 159.003 67.1188 158.793 67.169 158.586C67.1744 158.564 67.1789 158.541 67.1846 158.519L67.208 158.434C67.2303 158.352 67.2537 158.27 67.2793 158.189C67.2873 158.164 67.2954 158.139 67.3037 158.114C67.3372 158.013 67.3725 157.913 67.4111 157.814C67.4173 157.798 67.4244 157.783 67.4307 157.767C67.5144 157.558 67.6097 157.355 67.7158 157.158C67.7274 157.136 67.7391 157.115 67.751 157.093C67.8011 157.003 67.8535 156.913 67.9082 156.826C67.9207 156.806 67.9336 156.786 67.9463 156.766C68.0669 156.578 68.1977 156.395 68.3389 156.221C68.3524 156.204 68.3662 156.188 68.3799 156.171C68.4477 156.089 68.5177 156.009 68.5899 155.931C68.6028 155.917 68.6158 155.903 68.6289 155.889C68.7081 155.805 68.7898 155.723 68.874 155.643C68.8802 155.637 68.8864 155.631 68.8926 155.625C69.1606 155.374 69.4537 155.146 69.7686 154.945C69.783 154.936 69.797 154.926 69.8115 154.916C69.9046 154.858 69.9999 154.803 70.0967 154.749C70.1184 154.737 70.1403 154.726 70.1621 154.714C70.2538 154.665 70.3466 154.617 70.4414 154.573L252.831 68.6245C252.863 68.6088 252.895 68.5946 252.927 68.5795L252.941 68.5727C252.946 68.5706 252.951 68.568 252.955 68.5659C253.027 68.5321 253.1 68.4999 253.173 68.4692C253.196 68.4596 253.218 68.4501 253.241 68.4409C253.297 68.4181 253.354 68.3964 253.41 68.3754C253.413 68.3745 253.415 68.3735 253.418 68.3725C253.448 68.3614 253.478 68.3508 253.508 68.3403C253.559 68.3224 253.61 68.305 253.661 68.2885C253.665 68.2872 253.67 68.286 253.674 68.2846C253.696 68.2775 253.718 68.2709 253.74 68.2641C253.807 68.2437 253.873 68.2235 253.94 68.2055C253.97 68.1976 254 68.1905 254.029 68.1831C254.081 68.17 254.133 68.1566 254.185 68.145C254.237 68.1331 254.29 68.1231 254.343 68.1127C254.373 68.1067 254.404 68.0997 254.435 68.0942C254.513 68.0801 254.591 68.068 254.67 68.0571C254.674 68.0564 254.679 68.0557 254.684 68.0551C254.76 68.0446 254.837 68.0362 254.913 68.0288C254.932 68.0269 254.951 68.0246 254.971 68.0229C255.035 68.0172 255.1 68.0138 255.164 68.0102C255.177 68.0094 255.191 68.0079 255.204 68.0073C255.369 67.9992 255.535 67.9978 255.699 68.0034ZM249.499 428.151V398.655L135.875 369.495L249.499 428.151ZM261.499 398.655V428.151L375.122 369.495L261.499 398.655ZM267.82 384.643L417.479 346.236L374.215 200.109L267.82 384.643ZM93.5186 346.236L243.177 384.643L136.783 200.109L93.5186 346.236ZM255.499 381.987L365.613 191H145.385L255.499 381.987ZM89.7139 316.817L127.697 188.526L79.6367 169.146L89.7139 316.817ZM383.313 188.568L421.284 316.817L431.357 169.196L383.313 188.568ZM150.369 179H360.629L255.499 82.1586L150.369 179ZM87.9815 159.572L133.724 178.016L222.625 96.1245L87.9815 159.572ZM377.356 177.983L423.078 159.547L288.405 96.1274L377.356 177.983Z" fill="white"/>
</g>
<defs>
<clipPath id="clip0_3_2">
<rect width="512" height="512" fill="white"/>
</clipPath>
</defs>
</svg>
