<svg width="16" height="16" viewBox="0 0 16 16" fill="none" xmlns="http://www.w3.org/2000/svg">
<path fill-rule="evenodd" clip-rule="evenodd" d="M8.00589 0.000143227C8.00628 0.000155959 8.00667 0.000170272 8.00705 0.000184783C8.0097 0.000286988 8.01233 0.000457465 8.01497 0.0006419C8.01656 0.000751348 8.01815 0.000834723 8.01973 0.00097435C8.02164 0.00114426 8.02355 0.00138476 8.02545 0.00159769C8.02711 0.00178158 8.02877 0.00196239 8.03042 0.00217948C8.03272 0.00248226 8.03501 0.00281166 8.0373 0.00317683C8.03857 0.00337908 8.03984 0.00357815 8.04111 0.00380017C8.04348 0.00421246 8.04584 0.00469164 8.0482 0.00517152C8.04962 0.00546217 8.05105 0.00572844 8.05246 0.0060442C8.05263 0.00608064 8.0528 0.00609055 8.05296 0.00612731C8.05574 0.00674708 8.05849 0.00744973 8.06125 0.00816356C8.06176 0.00829691 8.06227 0.00844244 8.06278 0.00857912C8.06604 0.00944617 8.06928 0.0104057 8.07252 0.0114049C8.073 0.0115539 8.07349 0.0116685 8.07397 0.0118205C8.07711 0.0128106 8.08023 0.0138638 8.08333 0.0149788C8.0838 0.0151491 8.08427 0.0153457 8.08474 0.015519C8.09371 0.0187985 8.10255 0.0225401 8.11117 0.0268638L15.8539 3.68397C15.9454 3.72722 16.0028 3.82076 15.9999 3.92221C15.9993 3.94299 15.9962 3.96328 15.9908 3.98276L15.443 12.0345C15.4426 12.0431 15.4416 12.0517 15.4403 12.0602C15.4402 12.0609 15.4401 12.0616 15.44 12.0623C15.4398 12.0635 15.4396 12.0646 15.4394 12.0658C15.4391 12.0673 15.4388 12.0688 15.4385 12.0702C15.4382 12.0718 15.4379 12.0734 15.4376 12.0749C15.4375 12.0755 15.4373 12.0761 15.4372 12.0767C15.4369 12.0781 15.4366 12.0794 15.4363 12.0807C15.4356 12.0836 15.4348 12.0865 15.4341 12.0894C15.4338 12.0902 15.4336 12.0909 15.4334 12.0917C15.4327 12.0942 15.432 12.0966 15.4312 12.099C15.431 12.0997 15.4307 12.1004 15.4305 12.1011C15.424 12.1209 15.4153 12.1395 15.4045 12.1568C15.4036 12.1582 15.4027 12.1596 15.4018 12.161C15.4004 12.163 15.3991 12.1651 15.3976 12.1672C15.3969 12.1683 15.3961 12.1693 15.3953 12.1704C15.3936 12.1728 15.3918 12.1753 15.39 12.1776C15.3894 12.1783 15.3889 12.1791 15.3884 12.1798C15.3796 12.1909 15.3698 12.2013 15.3592 12.2109C15.3581 12.2119 15.357 12.2129 15.356 12.2138C15.3552 12.2145 15.3544 12.2152 15.3536 12.2159C15.3528 12.2166 15.3519 12.2172 15.3511 12.2179C15.3498 12.219 15.3485 12.2201 15.3472 12.2212C15.3463 12.2219 15.3455 12.2225 15.3446 12.2231C15.3438 12.2238 15.343 12.2244 15.3422 12.225C15.3405 12.2263 15.3388 12.2276 15.337 12.2288C15.3364 12.2293 15.3357 12.2298 15.335 12.2302C15.3341 12.2309 15.3331 12.2316 15.3322 12.2322C15.3307 12.2332 15.3293 12.2342 15.3278 12.2352C15.3269 12.2357 15.326 12.2363 15.3252 12.2368C15.3247 12.2371 15.3243 12.2374 15.3238 12.2377C15.3168 12.2421 15.3096 12.2462 15.3021 12.2499L8.11577 15.9708C8.11546 15.971 8.11514 15.9711 8.11482 15.9713L8.11416 15.9717C8.11216 15.9727 8.11009 15.9736 8.10807 15.9746C8.10542 15.9759 8.10279 15.9772 8.10011 15.9784C8.09768 15.9794 8.09519 15.9804 8.09274 15.9813C8.08993 15.9825 8.08716 15.9837 8.08433 15.9847C8.08283 15.9853 8.08131 15.9857 8.07981 15.9862C8.07618 15.9875 8.07254 15.9887 8.06887 15.9898C8.06707 15.9903 8.06525 15.9907 8.06344 15.9912C8.06007 15.9921 8.0567 15.993 8.05329 15.9938C8.05091 15.9944 8.04851 15.9948 8.04613 15.9952C8.04328 15.9958 8.04045 15.9964 8.03759 15.9968C8.03504 15.9973 8.03248 15.9976 8.02993 15.9979C8.02708 15.9983 8.02424 15.9987 8.02139 15.9989C8.01929 15.9991 8.01719 15.9992 8.01509 15.9993C8.01178 15.9996 8.00847 15.9999 8.00515 16C8.00257 16 7.99998 16 7.9974 16C7.9948 16 7.99221 16 7.98961 16C7.98635 15.9999 7.98309 15.9996 7.97983 15.9994C7.97768 15.9992 7.97552 15.9991 7.97337 15.9989C7.97052 15.9987 7.96768 15.9983 7.96484 15.9979C7.96228 15.9976 7.95972 15.9973 7.95717 15.9968C7.95427 15.9964 7.9514 15.9958 7.94851 15.9952C7.94618 15.9947 7.94383 15.9943 7.94151 15.9938C7.93774 15.993 7.93401 15.992 7.93028 15.9909C7.92889 15.9906 7.92748 15.9903 7.9261 15.9899C7.92254 15.9888 7.91904 15.9876 7.91553 15.9864C7.91377 15.9858 7.91198 15.9853 7.91023 15.9846C7.90742 15.9836 7.90467 15.9824 7.9019 15.9813C7.89957 15.9804 7.89721 15.9795 7.8949 15.9784C7.89224 15.9773 7.88965 15.976 7.88703 15.9747C7.88491 15.9737 7.88274 15.9727 7.88064 15.9717L0.692626 12.2499C0.692056 12.2497 0.691494 12.2494 0.690927 12.2491L0.689311 12.2482C0.689058 12.2481 0.688817 12.2479 0.688565 12.2478C0.685446 12.2462 0.682366 12.2445 0.679326 12.2427C0.67874 12.2424 0.678168 12.2421 0.677586 12.2417C0.675187 12.2403 0.672806 12.2389 0.670459 12.2374C0.669078 12.2365 0.667717 12.2356 0.666358 12.2347C0.665108 12.2339 0.663862 12.2331 0.662629 12.2322C0.661695 12.2316 0.660778 12.2309 0.659853 12.2303C0.659162 12.2298 0.658466 12.2293 0.657781 12.2288C0.655854 12.2274 0.653949 12.226 0.652063 12.2246C0.651443 12.2241 0.650815 12.2237 0.650199 12.2232C0.649676 12.2228 0.649143 12.2224 0.648624 12.222C0.64631 12.2201 0.644036 12.2183 0.641788 12.2164C0.640941 12.2156 0.640097 12.2149 0.639261 12.2142C0.637628 12.2128 0.63605 12.2113 0.634455 12.2098C0.624266 12.2005 0.61488 12.1905 0.606446 12.1798C0.606049 12.1793 0.60568 12.1788 0.605286 12.1783C0.603278 12.1757 0.601306 12.1731 0.599403 12.1704C0.598638 12.1693 0.597914 12.1682 0.597165 12.1672C0.596673 12.1664 0.596159 12.1658 0.595674 12.165C0.594473 12.1633 0.59331 12.1615 0.592152 12.1597C0.591665 12.1589 0.591182 12.1582 0.590702 12.1574C0.590063 12.1564 0.58938 12.1554 0.588755 12.1544C0.587998 12.1531 0.587294 12.1518 0.586559 12.1506C0.58155 12.142 0.577018 12.1332 0.57301 12.124C0.57254 12.1229 0.572099 12.1219 0.571643 12.1208C0.570633 12.1184 0.56964 12.116 0.568701 12.1136C0.568237 12.1123 0.56778 12.1111 0.567334 12.1099C0.565163 12.104 0.563193 12.0981 0.561451 12.092C0.561066 12.0906 0.560696 12.0893 0.560332 12.088C0.55978 12.0859 0.55926 12.0838 0.558758 12.0818C0.558351 12.0801 0.557971 12.0784 0.557598 12.0767C0.557122 12.0746 0.556651 12.0724 0.55623 12.0702C0.555941 12.0688 0.555665 12.0673 0.555402 12.0658C0.555014 12.0636 0.554655 12.0614 0.554324 12.0592C0.554055 12.0574 0.55381 12.0556 0.553579 12.0538C0.553352 12.052 0.553147 12.0502 0.552957 12.0484C0.552691 12.0459 0.552446 12.0434 0.552253 12.0409C0.552198 12.0402 0.552136 12.0395 0.552087 12.0387L0.000539334 3.93231C0.000485874 3.93152 0.000461205 3.93073 0.000415037 3.92994C0.000264527 3.92737 0.000157214 3.9248 8.35777e-05 3.92221C4.82097e-05 3.92097 5.94455e-05 3.91971 4.21453e-05 3.91847C2.12637e-05 3.91697 -4.64318e-06 3.91548 7.12925e-07 3.91398C1.52412e-05 3.90985 0.000120517 3.90574 0.000332172 3.90164C0.000420022 3.89995 0.000542386 3.89826 0.000663631 3.89657C0.000961475 3.89241 0.00132619 3.88826 0.00182374 3.88415C0.00192812 3.88328 0.00208356 3.88243 0.00219663 3.88157C0.003385 3.87251 0.005042 3.86356 0.00716851 3.85477C0.00739927 3.85381 0.00758984 3.85285 0.00783143 3.8519L0.00882581 3.84828C0.00976961 3.84478 0.0107616 3.8413 0.0118504 3.83785C0.0121882 3.83678 0.0125345 3.83572 0.0128862 3.83465C0.0143044 3.83036 0.0158043 3.8261 0.0174437 3.8219C0.0177055 3.82122 0.018005 3.82057 0.0182724 3.8199C0.0218223 3.81102 0.0258658 3.80237 0.0303706 3.79397C0.0308626 3.79305 0.031359 3.79214 0.0318622 3.79123C0.0339892 3.78737 0.0362109 3.78358 0.0385328 3.77984C0.0390618 3.77899 0.0396095 3.77815 0.0401487 3.77731C0.0452669 3.76928 0.0508146 3.76153 0.0568045 3.75412C0.057379 3.75341 0.0579622 3.7527 0.0585447 3.752C0.0614206 3.74852 0.0643901 3.74511 0.0674526 3.74177C0.0680025 3.74118 0.0685539 3.74058 0.0691099 3.73999C0.07247 3.7364 0.075937 3.73291 0.0795094 3.72952C0.0797719 3.72927 0.080033 3.72902 0.0802966 3.72877C0.0916666 3.71806 0.104101 3.70836 0.117461 3.6998C0.118075 3.69941 0.118668 3.69899 0.119284 3.6986C0.123231 3.69612 0.127277 3.69377 0.131383 3.69149C0.132303 3.69098 0.133234 3.69049 0.134159 3.69C0.138047 3.6879 0.141986 3.68587 0.146008 3.68397L7.88421 0.0265729C7.88555 0.0259053 7.88692 0.0253038 7.88827 0.0246614L7.88889 0.0243705C7.88908 0.0242803 7.88928 0.0241692 7.88947 0.0240796C7.89253 0.0226433 7.89561 0.021273 7.89871 0.0199655C7.89967 0.0195577 7.90064 0.0191554 7.90161 0.0187604C7.90399 0.0177926 7.90638 0.0168689 7.90878 0.0159761C7.90889 0.0159349 7.909 0.0158925 7.90911 0.0158514C7.91038 0.0153803 7.91165 0.0149298 7.91292 0.0144801C7.91508 0.0137185 7.91725 0.0129789 7.91943 0.0122776C7.9196 0.0122199 7.91978 0.0121687 7.91996 0.0121114C7.9209 0.0118105 7.92184 0.0115282 7.92278 0.0112387C7.92561 0.0103721 7.92843 0.00951122 7.93127 0.00874535C7.93253 0.00840647 7.93379 0.00810847 7.93505 0.00778956C7.93724 0.00723524 7.93943 0.00666372 7.94163 0.00616887C7.94386 0.00566538 7.94611 0.00523889 7.94834 0.00479751C7.94965 0.00454237 7.95094 0.0042426 7.95224 0.00400795C7.95556 0.00340648 7.95889 0.00289487 7.96222 0.00242881C7.96242 0.00240186 7.96261 0.00237221 7.9628 0.0023457C7.96605 0.00189965 7.9693 0.00154247 7.97254 0.00122369C7.97336 0.00114381 7.97417 0.00104635 7.97499 0.00097435C7.97772 0.000732718 7.98046 0.000586333 7.98319 0.00043412C7.98376 0.000401949 7.98432 0.000337828 7.98489 0.000309451C7.9919 -3.38131e-05 7.99891 -9.49029e-05 8.00589 0.000143227ZM7.74284 15.3257V14.0705L2.92214 12.8296L7.74284 15.3257ZM8.25196 14.0705V15.3257L13.0726 12.8296L8.25196 14.0705ZM8.52015 13.4743L14.8697 11.8399L13.0341 5.62169L8.52015 13.4743ZM1.1251 11.8399L7.47461 13.4743L2.96067 5.62169L1.1251 11.8399ZM7.9974 13.3612L12.6692 5.2341H3.32561L7.9974 13.3612ZM0.963676 10.588L2.57519 5.12879L0.536136 4.30411L0.963676 10.588ZM13.4201 5.13058L15.0311 10.588L15.4585 4.30623L13.4201 5.13058ZM3.53708 4.72346H12.4577L7.9974 0.602499L3.53708 4.72346ZM0.890175 3.8967L2.83087 4.68157L6.60266 1.19679L0.890175 3.8967ZM13.1674 4.68015L15.1072 3.89566L9.39351 1.19692L13.1674 4.68015Z" fill="white"/>
</svg>
